<svg width="214" height="31" viewBox="0 0 214 31" fill="none" xmlns="http://www.w3.org/2000/svg">
<g id="bytescarelogo" clip-path="url(#clip0_1_227)">
<g id="g196">
<g id="g158">
<g id="g156">
<path id="path154" d="M156.896 11.2452C156.616 10.6103 156.228 10.0572 155.733 9.60659C155.237 9.13548 154.656 8.76679 154.01 8.50051C153.342 8.23423 152.653 8.09085 151.899 8.09085C151.145 8.09085 150.456 8.23423 149.788 8.50051C149.121 8.76679 148.539 9.13548 148.065 9.60659C147.57 10.0777 147.182 10.6307 146.902 11.2452C146.622 11.8802 146.472 12.5357 146.472 13.2526V18.4143H157.326V13.2526C157.326 12.5562 157.176 11.8802 156.896 11.2452ZM183.321 11.2452C183.041 10.6103 182.654 10.0572 182.158 9.60659C181.663 9.13548 181.103 8.76679 180.435 8.50051C179.768 8.23423 179.078 8.09085 178.325 8.09085H172.897V18.4348H178.325C179.078 18.4348 179.768 18.2914 180.435 18.0251C181.103 17.7588 181.663 17.3902 182.158 16.919C182.654 16.4479 183.041 15.8949 183.321 15.2804C183.601 14.6454 183.752 13.99 183.752 13.2731C183.752 12.5562 183.601 11.8802 183.321 11.2452ZM183.321 11.2452C183.041 10.6103 182.654 10.0572 182.158 9.60659C181.663 9.13548 181.103 8.76679 180.435 8.50051C179.768 8.23423 179.078 8.09085 178.325 8.09085H172.897V18.4348H178.325C179.078 18.4348 179.768 18.2914 180.435 18.0251C181.103 17.7588 181.663 17.3902 182.158 16.919C182.654 16.4479 183.041 15.8949 183.321 15.2804C183.601 14.6454 183.752 13.99 183.752 13.2731C183.752 12.5562 183.601 11.8802 183.321 11.2452ZM156.896 11.2452C156.616 10.6103 156.228 10.0572 155.733 9.60659C155.237 9.13548 154.656 8.76679 154.01 8.50051C153.342 8.23423 152.653 8.09085 151.899 8.09085C151.145 8.09085 150.456 8.23423 149.788 8.50051C149.121 8.76679 148.539 9.13548 148.065 9.60659C147.57 10.0777 147.182 10.6307 146.902 11.2452C146.622 11.8802 146.472 12.5357 146.472 13.2526V18.4143H157.326V13.2526C157.326 12.5562 157.176 11.8802 156.896 11.2452ZM130.556 0.839844C122.329 0.839844 115.653 7.18959 115.653 15.0141V16.1817C115.653 24.0062 122.307 30.3354 130.535 30.3354H213.214V0.839844H130.556ZM136.22 7.76311L131.224 7.7836C126.809 8.09085 123.32 11.6139 123.32 15.8949C123.32 20.1759 126.809 23.6989 131.224 24.0062L136.22 24.0267V28.7992H131.224C123.75 28.7992 117.699 23.023 117.699 15.8949C117.699 8.76679 123.75 2.99056 131.224 2.99056H136.22V7.76311ZM162.754 28.7378H157.326V23.576H146.45V28.7378H141.044V13.2526C141.044 11.8188 141.324 10.4874 141.906 9.2379C142.466 7.98843 143.241 6.88235 144.232 5.96061C145.201 5.01839 146.364 4.281 147.678 3.74844C148.992 3.21588 150.413 2.92912 151.899 2.92912C153.385 2.92912 154.806 3.1954 156.12 3.74844C157.434 4.281 158.597 5.01839 159.566 5.96061C160.535 6.90283 161.332 7.98843 161.892 9.2379C162.452 10.4874 162.732 11.8392 162.732 13.2526V28.7378H162.754ZM188.835 15.8539C188.598 16.6937 188.275 17.4926 187.822 18.2504C187.37 19.0083 186.853 19.7047 186.229 20.3397C185.604 20.9747 184.893 21.5277 184.118 21.9988L187.133 28.7583H181.34L178.971 23.5556L172.897 23.5965V28.7583H167.47V2.9496H178.325C179.315 2.9496 180.285 3.0725 181.211 3.3183C182.137 3.56409 182.998 3.91231 183.795 4.36293C184.592 4.81356 185.324 5.34612 185.992 5.98109C186.659 6.61607 187.219 7.31249 187.693 8.07036C188.167 8.84872 188.533 9.66804 188.792 10.5283C189.05 11.4091 189.179 12.3104 189.179 13.2731C189.179 14.1538 189.072 15.0141 188.835 15.8539ZM211.168 28.7992H192.647V23.6785H211.168V28.7992ZM211.168 18.3529H192.647V13.2321H211.168V18.3529ZM211.168 8.11133H192.647V2.99056H211.168V8.11133ZM182.158 9.60659C181.663 9.13548 181.103 8.76679 180.435 8.50051C179.768 8.23423 179.078 8.09085 178.325 8.09085H172.897V18.4348H178.325C179.078 18.4348 179.768 18.2914 180.435 18.0251C181.103 17.7588 181.663 17.3902 182.158 16.919C182.654 16.4479 183.041 15.8949 183.321 15.2804C183.601 14.6454 183.752 13.99 183.752 13.2731C183.752 12.5766 183.601 11.9007 183.321 11.2657C183.041 10.6307 182.654 10.0777 182.158 9.60659ZM155.733 9.60659C155.237 9.13548 154.656 8.76679 154.01 8.50051C153.342 8.23423 152.653 8.09085 151.899 8.09085C151.145 8.09085 150.456 8.23423 149.788 8.50051C149.121 8.76679 148.539 9.13548 148.065 9.60659C147.57 10.0777 147.182 10.6307 146.902 11.2452C146.622 11.8802 146.472 12.5357 146.472 13.2526V18.4143H157.326V13.2526C157.326 12.5562 157.176 11.8802 156.896 11.2452C156.616 10.6307 156.228 10.0777 155.733 9.60659ZM183.321 11.2452C183.041 10.6103 182.654 10.0572 182.158 9.60659C181.663 9.13548 181.103 8.76679 180.435 8.50051C179.768 8.23423 179.078 8.09085 178.325 8.09085H172.897V18.4348H178.325C179.078 18.4348 179.768 18.2914 180.435 18.0251C181.103 17.7588 181.663 17.3902 182.158 16.919C182.654 16.4479 183.041 15.8949 183.321 15.2804C183.601 14.6454 183.752 13.99 183.752 13.2731C183.752 12.5562 183.601 11.8802 183.321 11.2452ZM183.321 11.2452C183.041 10.6103 182.654 10.0572 182.158 9.60659C181.663 9.13548 181.103 8.76679 180.435 8.50051C179.768 8.23423 179.078 8.09085 178.325 8.09085H172.897V18.4348H178.325C179.078 18.4348 179.768 18.2914 180.435 18.0251C181.103 17.7588 181.663 17.3902 182.158 16.919C182.654 16.4479 183.041 15.8949 183.321 15.2804C183.601 14.6454 183.752 13.99 183.752 13.2731C183.752 12.5562 183.601 11.8802 183.321 11.2452Z" fill="#FFA300"/>
</g>
</g>
<g id="g178">
<g id="g176">
<g id="g166">
<path id="path164" d="M37.7324 28.4919H32.3482V20.4626C31.1637 20.1758 30.0653 19.7252 29.0531 19.0902C28.0624 18.4552 27.2009 17.6974 26.4902 16.8166C25.7795 15.9358 25.2195 14.9731 24.8319 13.908C24.4442 12.8429 24.2288 11.7163 24.2288 10.5283V2.82666H29.6346V10.5283C29.6346 11.2247 29.7853 11.9007 30.0653 12.5151C30.3453 13.1501 30.7329 13.6827 31.2283 14.1538C31.7236 14.6249 32.2836 14.9936 32.9512 15.2599C33.6189 15.5262 34.308 15.6695 35.0403 15.6695C35.7725 15.6695 36.4833 15.5262 37.1294 15.2599C37.797 14.9936 38.357 14.6249 38.8523 14.1538C39.3477 13.6827 39.7353 13.1501 40.0153 12.5151C40.2953 11.8802 40.446 11.2247 40.446 10.5283V2.82666H45.8302V10.5283C45.8302 11.7163 45.6364 12.8429 45.2272 13.908C44.8395 14.9731 44.2796 15.9563 43.5689 16.8166C42.8582 17.6974 41.9967 18.4552 41.006 19.0902C40.0153 19.7252 38.9169 20.1758 37.7324 20.4626V28.4919Z" fill="white"/>
</g>
<g id="g170">
<path id="path168" d="M60.8413 28.4919H55.4571V7.9474H47.3378V2.80615H68.9176V7.9474H60.8198V28.4919H60.8413Z" fill="white"/>
</g>
<g id="g174">
<path id="path172" d="M92.1988 10.5078C92.1988 9.44266 92.4142 8.43899 92.8449 7.51726C93.2756 6.59552 93.8571 5.7762 94.5894 5.07977C95.3216 4.38335 96.1831 3.83031 97.1523 3.42064C98.1214 3.01098 99.1767 2.80615 100.297 2.80615H112.68V7.9474H100.297C99.9305 7.9474 99.5644 8.00885 99.2413 8.15223C98.9183 8.27513 98.6383 8.45947 98.3798 8.70527C98.1429 8.93058 97.9491 9.21735 97.7984 9.52459C97.6691 9.83184 97.583 10.1596 97.583 10.5283C97.583 10.897 97.6476 11.2247 97.7984 11.5319C97.9276 11.8392 98.1214 12.1259 98.3798 12.3513C98.6168 12.5766 98.9183 12.7609 99.2413 12.9043C99.5644 13.0272 99.909 13.1091 100.297 13.1091H105.702C106.822 13.1091 107.878 13.314 108.847 13.7031C109.837 14.1128 110.699 14.6454 111.431 15.3418C112.163 16.0382 112.745 16.8575 113.154 17.7997C113.585 18.742 113.779 19.7456 113.779 20.7903C113.779 21.8554 113.563 22.8591 113.154 23.7808C112.723 24.7025 112.163 25.5219 111.431 26.2183C110.699 26.9147 109.837 27.4678 108.847 27.8774C107.856 28.2871 106.801 28.4919 105.702 28.4919H92.1988V23.3507H105.702C106.068 23.3507 106.435 23.2892 106.758 23.1458C107.081 23.0229 107.361 22.8386 107.619 22.5928C107.856 22.3675 108.05 22.0807 108.201 21.7735C108.33 21.4662 108.416 21.1385 108.416 20.7698C108.416 20.4011 108.351 20.0734 108.201 19.7661C108.071 19.4589 107.878 19.1926 107.619 18.9468C107.382 18.7215 107.081 18.5371 106.758 18.3938C106.435 18.2709 106.09 18.1889 105.702 18.1889H100.297C99.1767 18.1889 98.1214 17.9841 97.1523 17.5744C96.1831 17.1648 95.3216 16.6117 94.5894 15.9153C93.8571 15.2189 93.2756 14.3996 92.8449 13.4573C92.4142 12.5766 92.1988 11.5729 92.1988 10.5078Z" fill="white"/>
</g>
</g>
</g>
<g id="g182">
<path id="rect180" d="M90.0239 2.68335H71.5023V7.80411H90.0239V2.68335Z" fill="white"/>
</g>
<g id="g186">
<path id="rect184" d="M90.0239 12.9248H71.5023V18.0456H90.0239V12.9248Z" fill="white"/>
</g>
<g id="g190">
<path id="rect188" d="M90.0239 23.3711H71.5023V28.4919H90.0239V23.3711Z" fill="white"/>
</g>
<g id="g194">
<path id="path192" d="M23.0444 18.865C23.0444 29.3113 14.645 28.492 14.645 28.492H0V23.7809H13.0298C13.0298 23.7809 17.8755 23.7809 17.8755 18.865C17.8755 17.4312 16.1526 15.3828 14.645 15.178C12.2114 14.8503 8.63626 14.9732 8.18398 14.9732C8.18398 9.64759 8.83009 7.39445 4.95346 7.59928V18.4553H0V2.68335C14.8604 2.68335 13.3528 5.14132 13.7836 10.2621C14.645 10.4669 23.0444 10.2621 23.0444 18.865Z" fill="white"/>
</g>
</g>
</g>
<defs>
<clipPath id="clip0_1_227">
<rect width="213.214" height="29.4956" fill="white" transform="translate(0 0.839844)"/>
</clipPath>
</defs>
</svg>
