<svg width="214" height="30" viewBox="0 0 214 30" fill="none" xmlns="http://www.w3.org/2000/svg">
<g id="bytescarelogo" clip-path="url(#clip0_1_712)">
<g id="g152">
<g id="g96">
<path id="path94" d="M40.4462 2.22909V10.0624C40.4462 10.7707 40.317 11.4583 40.0155 12.0833C39.7355 12.7291 39.3478 13.2708 38.8525 13.7499C38.3571 14.2291 37.7972 14.6041 37.1295 14.8749C36.4619 15.1458 35.7727 15.2916 35.0405 15.2916C34.3082 15.2916 33.5975 15.1666 32.9299 14.8749C32.2622 14.6041 31.7023 14.2291 31.2069 13.7499C30.7116 13.2708 30.3239 12.7291 30.0439 12.0833C29.764 11.4374 29.6132 10.7707 29.6132 10.0624V2.22909H24.2075V10.0624C24.2075 11.2707 24.4013 12.4166 24.8105 13.4999C25.1982 14.5832 25.7581 15.5833 26.4688 16.4791C27.1795 17.3749 28.041 18.1458 29.0317 18.7916C30.0224 19.4374 31.1208 19.8958 32.3268 20.1874V28.3333H37.711V20.1666C38.8956 19.8749 39.9939 19.4166 40.9846 18.7708C41.9753 18.1249 42.8368 17.3541 43.5475 16.4583C44.2582 15.5624 44.8182 14.5833 45.2058 13.4791C45.5935 12.3958 45.8089 11.2499 45.8089 10.0416V2.20825H40.4462V2.22909Z" fill="url(#paint0_linear_1_712)"/>
</g>
<g id="g105">
<path id="path103" d="M47.3381 2.229V7.45817H55.4574V28.3332H60.8416V7.45817H68.9179V2.229H47.3381Z" fill="url(#paint1_linear_1_712)"/>
</g>
<g id="g114">
<path id="path112" d="M113.154 17.4582C112.724 16.4999 112.164 15.6666 111.431 14.9582C110.699 14.2499 109.838 13.6874 108.847 13.2916C107.856 12.8749 106.801 12.6874 105.703 12.6874H100.297C99.9308 12.6874 99.5647 12.6249 99.2416 12.4791C98.9186 12.3541 98.6386 12.1666 98.3802 11.9166C98.1433 11.6874 97.9494 11.3958 97.7987 11.0833C97.6479 10.7708 97.5833 10.4166 97.5833 10.0624C97.5833 9.70825 97.6479 9.35408 97.7987 9.04158C97.9279 8.72908 98.1217 8.45825 98.3802 8.20825C98.6171 7.97908 98.9186 7.79159 99.2416 7.64575C99.5647 7.52075 99.9093 7.43742 100.297 7.43742H112.681V2.20825H100.297C99.177 2.20825 98.1217 2.41659 97.1526 2.83325C96.1834 3.24992 95.3219 3.81242 94.5897 4.52075C93.8574 5.22909 93.2759 6.06242 92.8452 6.99992C92.4145 7.95825 92.1991 8.95825 92.1991 10.0416C92.1991 11.1249 92.4145 12.1457 92.8452 13.0832C93.2759 14.0416 93.8574 14.8749 94.5897 15.5832C95.3219 16.2916 96.1834 16.8541 97.1526 17.2708C98.1217 17.6874 99.177 17.8958 100.297 17.8958H105.703C106.09 17.8958 106.435 17.9583 106.758 18.1041C107.081 18.2291 107.361 18.4166 107.619 18.6666C107.856 18.8958 108.05 19.1874 108.201 19.4999C108.33 19.8124 108.416 20.1666 108.416 20.5208C108.416 20.8749 108.352 21.2291 108.201 21.5416C108.05 21.8541 107.878 22.1249 107.619 22.3749C107.383 22.6041 107.081 22.7916 106.758 22.9374C106.435 23.0624 106.09 23.1457 105.703 23.1457H92.1991V28.3333H105.703C106.823 28.3333 107.878 28.1249 108.847 27.7083C109.838 27.2916 110.699 26.7291 111.431 26.0208C112.164 25.3124 112.745 24.4791 113.154 23.5416C113.585 22.6041 113.779 21.5833 113.779 20.4999C113.779 19.4166 113.564 18.3957 113.154 17.4582Z" fill="url(#paint2_linear_1_712)"/>
</g>
<g id="g123">
<path id="rect121" d="M90.0239 2.08325H71.5023V7.29158H90.0239V2.08325Z" fill="url(#paint3_linear_1_712)"/>
</g>
<g id="g132">
<path id="rect130" d="M90.0239 12.5H71.5023V17.7083H90.0239V12.5Z" fill="url(#paint4_linear_1_712)"/>
</g>
<g id="g141">
<path id="rect139" d="M90.0239 23.125H71.5023V28.3333H90.0239V23.125Z" fill="url(#paint5_linear_1_712)"/>
</g>
<g id="g150">
<path id="path148" d="M23.0444 18.5416C23.0444 29.1666 14.645 28.3333 14.645 28.3333H0V23.5416H13.0298C13.0298 23.5416 17.8755 23.5416 17.8755 18.5416C17.8755 17.0833 16.1526 14.9999 14.645 14.7916C12.2114 14.4583 8.63626 14.5833 8.18398 14.5833C8.18398 9.16659 8.83009 6.87492 4.95346 7.08325V18.1249H0V2.08325C14.8604 2.08325 13.3528 4.58325 13.7836 9.79159C14.645 9.99992 23.0444 9.79159 23.0444 18.5416Z" fill="url(#paint6_linear_1_712)"/>
</g>
</g>
<g id="g196">
<g id="g158">
<g id="g156">
<path id="path154" d="M156.896 10.5833C156.616 9.9375 156.228 9.375 155.733 8.91666C155.237 8.4375 154.656 8.0625 154.01 7.79167C153.342 7.52083 152.653 7.375 151.899 7.375C151.145 7.375 150.456 7.52083 149.788 7.79167C149.121 8.0625 148.539 8.4375 148.065 8.91666C147.57 9.39583 147.182 9.95833 146.902 10.5833C146.622 11.2292 146.472 11.8958 146.472 12.625V17.875H157.326V12.625C157.326 11.9167 157.176 11.2292 156.896 10.5833ZM183.321 10.5833C183.041 9.9375 182.654 9.375 182.158 8.91666C181.663 8.4375 181.103 8.0625 180.435 7.79167C179.768 7.52083 179.078 7.375 178.325 7.375H172.897V17.8958H178.325C179.078 17.8958 179.768 17.75 180.435 17.4792C181.103 17.2083 181.663 16.8333 182.158 16.3542C182.654 15.875 183.041 15.3125 183.321 14.6875C183.601 14.0417 183.752 13.375 183.752 12.6458C183.752 11.9167 183.601 11.2292 183.321 10.5833ZM183.321 10.5833C183.041 9.9375 182.654 9.375 182.158 8.91666C181.663 8.4375 181.103 8.0625 180.435 7.79167C179.768 7.52083 179.078 7.375 178.325 7.375H172.897V17.8958H178.325C179.078 17.8958 179.768 17.75 180.435 17.4792C181.103 17.2083 181.663 16.8333 182.158 16.3542C182.654 15.875 183.041 15.3125 183.321 14.6875C183.601 14.0417 183.752 13.375 183.752 12.6458C183.752 11.9167 183.601 11.2292 183.321 10.5833ZM156.896 10.5833C156.616 9.9375 156.228 9.375 155.733 8.91666C155.237 8.4375 154.656 8.0625 154.01 7.79167C153.342 7.52083 152.653 7.375 151.899 7.375C151.145 7.375 150.456 7.52083 149.788 7.79167C149.121 8.0625 148.539 8.4375 148.065 8.91666C147.57 9.39583 147.182 9.95833 146.902 10.5833C146.622 11.2292 146.472 11.8958 146.472 12.625V17.875H157.326V12.625C157.326 11.9167 157.176 11.2292 156.896 10.5833ZM130.556 0C122.329 0 115.653 6.45834 115.653 14.4167V15.6042C115.653 23.5625 122.307 30 130.535 30H213.214V0H130.556ZM136.22 7.04166L131.224 7.0625C126.809 7.375 123.32 10.9583 123.32 15.3125C123.32 19.6667 126.809 23.25 131.224 23.5625L136.22 23.5833V28.4375H131.224C123.75 28.4375 117.699 22.5625 117.699 15.3125C117.699 8.0625 123.75 2.1875 131.224 2.1875H136.22V7.04166ZM162.754 28.375H157.326V23.125H146.45V28.375H141.044V12.625C141.044 11.1667 141.324 9.8125 141.906 8.54167C142.466 7.27083 143.241 6.14583 144.232 5.20833C145.201 4.25 146.364 3.5 147.678 2.95834C148.992 2.41667 150.413 2.125 151.899 2.125C153.385 2.125 154.806 2.39584 156.12 2.95834C157.434 3.5 158.597 4.25 159.566 5.20833C160.535 6.16667 161.332 7.27083 161.892 8.54167C162.452 9.8125 162.732 11.1875 162.732 12.625V28.375H162.754ZM188.835 15.2708C188.598 16.125 188.275 16.9375 187.822 17.7083C187.37 18.4792 186.853 19.1875 186.229 19.8333C185.604 20.4792 184.893 21.0417 184.118 21.5208L187.133 28.3958H181.34L178.971 23.1042L172.897 23.1458V28.3958H167.47V2.14583H178.325C179.315 2.14583 180.285 2.27083 181.211 2.52083C182.137 2.77083 182.998 3.125 183.795 3.58334C184.592 4.04167 185.324 4.58333 185.992 5.22917C186.659 5.875 187.219 6.58333 187.693 7.35416C188.167 8.14583 188.533 8.97916 188.792 9.85416C189.05 10.75 189.179 11.6667 189.179 12.6458C189.179 13.5417 189.072 14.4167 188.835 15.2708ZM211.168 28.4375H192.647V23.2292H211.168V28.4375ZM211.168 17.8125H192.647V12.6042H211.168V17.8125ZM211.168 7.39583H192.647V2.1875H211.168V7.39583ZM182.158 8.91666C181.663 8.4375 181.103 8.0625 180.435 7.79167C179.768 7.52083 179.078 7.375 178.325 7.375H172.897V17.8958H178.325C179.078 17.8958 179.768 17.75 180.435 17.4792C181.103 17.2083 181.663 16.8333 182.158 16.3542C182.654 15.875 183.041 15.3125 183.321 14.6875C183.601 14.0417 183.752 13.375 183.752 12.6458C183.752 11.9375 183.601 11.25 183.321 10.6042C183.041 9.95833 182.654 9.39583 182.158 8.91666ZM155.733 8.91666C155.237 8.4375 154.656 8.0625 154.01 7.79167C153.342 7.52083 152.653 7.375 151.899 7.375C151.145 7.375 150.456 7.52083 149.788 7.79167C149.121 8.0625 148.539 8.4375 148.065 8.91666C147.57 9.39583 147.182 9.95833 146.902 10.5833C146.622 11.2292 146.472 11.8958 146.472 12.625V17.875H157.326V12.625C157.326 11.9167 157.176 11.2292 156.896 10.5833C156.616 9.95833 156.228 9.39583 155.733 8.91666ZM183.321 10.5833C183.041 9.9375 182.654 9.375 182.158 8.91666C181.663 8.4375 181.103 8.0625 180.435 7.79167C179.768 7.52083 179.078 7.375 178.325 7.375H172.897V17.8958H178.325C179.078 17.8958 179.768 17.75 180.435 17.4792C181.103 17.2083 181.663 16.8333 182.158 16.3542C182.654 15.875 183.041 15.3125 183.321 14.6875C183.601 14.0417 183.752 13.375 183.752 12.6458C183.752 11.9167 183.601 11.2292 183.321 10.5833ZM183.321 10.5833C183.041 9.9375 182.654 9.375 182.158 8.91666C181.663 8.4375 181.103 8.0625 180.435 7.79167C179.768 7.52083 179.078 7.375 178.325 7.375H172.897V17.8958H178.325C179.078 17.8958 179.768 17.75 180.435 17.4792C181.103 17.2083 181.663 16.8333 182.158 16.3542C182.654 15.875 183.041 15.3125 183.321 14.6875C183.601 14.0417 183.752 13.375 183.752 12.6458C183.752 11.9167 183.601 11.2292 183.321 10.5833Z" fill="#FFA300"/>
</g>
</g>
<g id="g178">
<g id="g176">
<g id="g166">
<path id="path164" d="M37.7324 28.1249H32.3482V19.9582C31.1637 19.6666 30.0653 19.2083 29.0531 18.5624C28.0624 17.9166 27.2009 17.1457 26.4902 16.2499C25.7795 15.3541 25.2195 14.3749 24.8319 13.2916C24.4442 12.2082 24.2288 11.0624 24.2288 9.85408V2.02075H29.6346V9.85408C29.6346 10.5624 29.7853 11.2499 30.0653 11.8749C30.3453 12.5207 30.7329 13.0624 31.2283 13.5416C31.7236 14.0207 32.2836 14.3957 32.9512 14.6666C33.6189 14.9374 34.308 15.0832 35.0403 15.0832C35.7725 15.0832 36.4833 14.9374 37.1294 14.6666C37.797 14.3957 38.357 14.0207 38.8523 13.5416C39.3477 13.0624 39.7353 12.5207 40.0153 11.8749C40.2953 11.2291 40.446 10.5624 40.446 9.85408V2.02075H45.8302V9.85408C45.8302 11.0624 45.6364 12.2082 45.2272 13.2916C44.8395 14.3749 44.2796 15.3749 43.5689 16.2499C42.8582 17.1457 41.9967 17.9166 41.006 18.5624C40.0153 19.2083 38.9169 19.6666 37.7324 19.9582V28.1249Z" fill="black"/>
</g>
<g id="g170">
<path id="path168" d="M60.8413 28.125H55.4571V7.22917H47.3378V2H68.9176V7.22917H60.8198V28.125H60.8413Z" fill="black"/>
</g>
<g id="g174">
<path id="path172" d="M92.1988 9.83333C92.1988 8.75 92.4142 7.72917 92.8449 6.79167C93.2756 5.85417 93.8571 5.02083 94.5894 4.3125C95.3216 3.60417 96.1831 3.04167 97.1523 2.625C98.1214 2.20833 99.1767 2 100.297 2H112.68V7.22917H100.297C99.9305 7.22917 99.5644 7.29167 99.2413 7.4375C98.9183 7.5625 98.6383 7.75 98.3798 8C98.1429 8.22916 97.9491 8.52083 97.7984 8.83333C97.6691 9.14583 97.583 9.47916 97.583 9.85416C97.583 10.2292 97.6476 10.5625 97.7984 10.875C97.9276 11.1875 98.1214 11.4792 98.3798 11.7083C98.6168 11.9375 98.9183 12.125 99.2413 12.2708C99.5644 12.3958 99.909 12.4792 100.297 12.4792H105.702C106.822 12.4792 107.878 12.6875 108.847 13.0833C109.837 13.5 110.699 14.0417 111.431 14.75C112.163 15.4583 112.745 16.2917 113.154 17.25C113.585 18.2083 113.779 19.2292 113.779 20.2917C113.779 21.375 113.563 22.3958 113.154 23.3333C112.723 24.2708 112.163 25.1042 111.431 25.8125C110.699 26.5208 109.837 27.0833 108.847 27.5C107.856 27.9167 106.801 28.125 105.702 28.125H92.1988V22.8958H105.702C106.068 22.8958 106.435 22.8333 106.758 22.6875C107.081 22.5625 107.361 22.375 107.619 22.125C107.856 21.8958 108.05 21.6042 108.201 21.2917C108.33 20.9792 108.416 20.6458 108.416 20.2708C108.416 19.8958 108.351 19.5625 108.201 19.25C108.071 18.9375 107.878 18.6667 107.619 18.4167C107.382 18.1875 107.081 18 106.758 17.8542C106.435 17.7292 106.09 17.6458 105.702 17.6458H100.297C99.1767 17.6458 98.1214 17.4375 97.1523 17.0208C96.1831 16.6042 95.3216 16.0417 94.5894 15.3333C93.8571 14.625 93.2756 13.7917 92.8449 12.8333C92.4142 11.9375 92.1988 10.9167 92.1988 9.83333Z" fill="black"/>
</g>
</g>
</g>
<g id="g182">
<path id="rect180" d="M90.024 1.875H71.5023V7.08333H90.024V1.875Z" fill="black"/>
</g>
<g id="g186">
<path id="rect184" d="M90.024 12.2917H71.5023V17.5001H90.024V12.2917Z" fill="black"/>
</g>
<g id="g190">
<path id="rect188" d="M90.024 22.9167H71.5023V28.1251H90.024V22.9167Z" fill="black"/>
</g>
<g id="g194">
<path id="path192" d="M23.0444 18.3333C23.0444 28.9583 14.645 28.125 14.645 28.125H0V23.3333H13.0298C13.0298 23.3333 17.8755 23.3333 17.8755 18.3333C17.8755 16.875 16.1526 14.7917 14.645 14.5833C12.2114 14.25 8.63626 14.375 8.18398 14.375C8.18398 8.95833 8.83009 6.66667 4.95346 6.875V17.9167H0V1.875C14.8604 1.875 13.3528 4.375 13.7836 9.58333C14.645 9.79167 23.0444 9.58333 23.0444 18.3333Z" fill="black"/>
</g>
</g>
</g>
<defs>
<linearGradient id="paint0_linear_1_712" x1="35.0351" y1="26.9976" x2="35.0351" y2="1.9969" gradientUnits="userSpaceOnUse">
<stop stop-color="#282828"/>
<stop offset="1" stop-color="#696868"/>
</linearGradient>
<linearGradient id="paint1_linear_1_712" x1="58.1312" y1="26.9975" x2="58.1312" y2="1.99682" gradientUnits="userSpaceOnUse">
<stop stop-color="#282828"/>
<stop offset="1" stop-color="#696868"/>
</linearGradient>
<linearGradient id="paint2_linear_1_712" x1="102.987" y1="26.9976" x2="102.987" y2="1.9969" gradientUnits="userSpaceOnUse">
<stop stop-color="#282828"/>
<stop offset="1" stop-color="#696868"/>
</linearGradient>
<linearGradient id="paint3_linear_1_712" x1="80.7631" y1="26.9976" x2="80.7631" y2="1.9969" gradientUnits="userSpaceOnUse">
<stop stop-color="#282828"/>
<stop offset="1" stop-color="#696868"/>
</linearGradient>
<linearGradient id="paint4_linear_1_712" x1="80.7631" y1="26.9977" x2="80.7631" y2="1.99698" gradientUnits="userSpaceOnUse">
<stop stop-color="#282828"/>
<stop offset="1" stop-color="#696868"/>
</linearGradient>
<linearGradient id="paint5_linear_1_712" x1="80.7631" y1="26.9977" x2="80.7631" y2="1.99699" gradientUnits="userSpaceOnUse">
<stop stop-color="#282828"/>
<stop offset="1" stop-color="#696868"/>
</linearGradient>
<linearGradient id="paint6_linear_1_712" x1="11.5222" y1="26.9976" x2="11.5222" y2="1.9969" gradientUnits="userSpaceOnUse">
<stop stop-color="#282828"/>
<stop offset="1" stop-color="#696868"/>
</linearGradient>
<clipPath id="clip0_1_712">
<rect width="213.214" height="30" fill="white"/>
</clipPath>
</defs>
</svg>
