<svg width="42" height="36" viewBox="0 0 42 36" fill="none" xmlns="http://www.w3.org/2000/svg">
<g id="Cyberlockers">
<path id="Vector" d="M2 11.8418H40" stroke="#333333" stroke-width="2.4" stroke-miterlimit="10" stroke-linecap="round" stroke-linejoin="round"/>
<path id="Vector_2" d="M9.84375 27.455H21.0489" stroke="#333333" stroke-width="3" stroke-miterlimit="10" stroke-linecap="round" stroke-linejoin="round"/>
<path id="Vector_3" d="M10.4769 34H2V2H40V34H7.98774" stroke="#333333" stroke-width="2.4" stroke-miterlimit="10" stroke-linecap="round" stroke-linejoin="round"/>
<path id="Vector_4" d="M7.09092 8.88416C8.01919 8.88416 8.77169 8.13534 8.77169 7.21161C8.77169 6.28789 8.01919 5.53906 7.09092 5.53906C6.16266 5.53906 5.41016 6.28789 5.41016 7.21161C5.41016 8.13534 6.16266 8.88416 7.09092 8.88416Z" fill="#FFA300"/>
<path id="Vector_5" d="M11.5733 8.88416C12.5016 8.88416 13.2541 8.13534 13.2541 7.21161C13.2541 6.28789 12.5016 5.53906 11.5733 5.53906C10.6451 5.53906 9.89258 6.28789 9.89258 7.21161C9.89258 8.13534 10.6451 8.88416 11.5733 8.88416Z" fill="#FFA300"/>
<path id="Vector_6" d="M16.0548 8.88416C16.9831 8.88416 17.7356 8.13534 17.7356 7.21161C17.7356 6.28789 16.9831 5.53906 16.0548 5.53906C15.1265 5.53906 14.374 6.28789 14.374 7.21161C14.374 8.13534 15.1265 8.88416 16.0548 8.88416Z" fill="#FFA300"/>
<g id=".com">
<path d="M9.57121 23.334C9.35368 23.334 9.16667 23.2562 9.01016 23.1004C8.85365 22.942 8.77539 22.7514 8.77539 22.5285C8.77539 22.3083 8.85365 22.1203 9.01016 21.9646C9.16667 21.8062 9.35368 21.7269 9.57121 21.7269C9.78873 21.7269 9.97575 21.8062 10.1323 21.9646C10.2888 22.1203 10.367 22.3083 10.367 22.5285C10.367 22.6762 10.3299 22.8118 10.2556 22.9353C10.184 23.0561 10.0885 23.1528 9.96912 23.2253C9.84974 23.2978 9.71711 23.334 9.57121 23.334Z" fill="#FFA300"/>
<path d="M14.5351 23.3824C13.9436 23.3824 13.4342 23.2468 13.0072 22.9756C12.5827 22.7017 12.2564 22.3244 12.0283 21.8438C11.8002 21.3631 11.6861 20.8126 11.6861 20.1923C11.6861 19.564 11.8028 19.0095 12.0363 18.5289C12.2697 18.0455 12.5986 17.6683 13.0231 17.397C13.4475 17.1258 13.9475 16.9902 14.5232 16.9902C14.9874 16.9902 15.4012 17.0775 15.7647 17.252C16.1281 17.4239 16.4212 17.6656 16.644 17.977C16.8695 18.2885 17.0035 18.6524 17.0459 19.0686H15.888C15.8243 18.7786 15.6784 18.5289 15.4503 18.3194C15.2248 18.11 14.9224 18.0052 14.5431 18.0052C14.2115 18.0052 13.921 18.0939 13.6717 18.2711C13.425 18.4456 13.2326 18.6953 13.0947 19.0203C12.9567 19.3425 12.8878 19.7238 12.8878 20.1642C12.8878 20.6153 12.9554 21.0046 13.0907 21.3322C13.226 21.6598 13.417 21.9136 13.6637 22.0935C13.9131 22.2734 14.2062 22.3633 14.5431 22.3633C14.7686 22.3633 14.9728 22.3217 15.1559 22.2385C15.3416 22.1526 15.4967 22.0304 15.6214 21.8719C15.7487 21.7135 15.8376 21.5229 15.888 21.3H17.0459C17.0035 21.7001 16.8748 22.0572 16.66 22.3714C16.4451 22.6856 16.1573 22.9326 15.7965 23.1125C15.4384 23.2924 15.0179 23.3824 14.5351 23.3824Z" fill="#FFA300"/>
<path d="M20.8927 23.3824C20.3197 23.3824 19.8197 23.2495 19.3926 22.9836C18.9655 22.7178 18.6339 22.3459 18.3978 21.8679C18.1617 21.39 18.0437 20.8314 18.0437 20.1923C18.0437 19.5506 18.1617 18.9894 18.3978 18.5087C18.6339 18.0281 18.9655 17.6548 19.3926 17.389C19.8197 17.1232 20.3197 16.9902 20.8927 16.9902C21.4657 16.9902 21.9657 17.1232 22.3928 17.389C22.8199 17.6548 23.1515 18.0281 23.3876 18.5087C23.6237 18.9894 23.7417 19.5506 23.7417 20.1923C23.7417 20.8314 23.6237 21.39 23.3876 21.8679C23.1515 22.3459 22.8199 22.7178 22.3928 22.9836C21.9657 23.2495 21.4657 23.3824 20.8927 23.3824ZM20.8967 22.3714C21.2681 22.3714 21.5758 22.272 21.8198 22.0733C22.0639 21.8746 22.2443 21.6101 22.361 21.2799C22.4804 20.9496 22.5401 20.5857 22.5401 20.1883C22.5401 19.7936 22.4804 19.4311 22.361 19.1008C22.2443 18.7678 22.0639 18.5007 21.8198 18.2993C21.5758 18.0979 21.2681 17.9972 20.8967 17.9972C20.5227 17.9972 20.2123 18.0979 19.9656 18.2993C19.7215 18.5007 19.5398 18.7678 19.4204 19.1008C19.3037 19.4311 19.2454 19.7936 19.2454 20.1883C19.2454 20.5857 19.3037 20.9496 19.4204 21.2799C19.5398 21.6101 19.7215 21.8746 19.9656 22.0733C20.2123 22.272 20.5227 22.3714 20.8967 22.3714Z" fill="#FFA300"/>
<path d="M25.0698 23.2575V17.0708H26.2118V18.0777H26.2874C26.4147 17.7367 26.6229 17.4709 26.9121 17.2802C27.2012 17.0869 27.5474 16.9902 27.9506 16.9902C28.3591 16.9902 28.7013 17.0869 28.9772 17.2802C29.2558 17.4736 29.4613 17.7394 29.594 18.0777H29.6576C29.8035 17.7475 30.0357 17.4843 30.354 17.2883C30.6723 17.0896 31.0517 16.9902 31.492 16.9902C32.0464 16.9902 32.4987 17.1661 32.8489 17.5179C33.2017 17.8696 33.3781 18.4 33.3781 19.1089V23.2575H32.1883V19.2216C32.1883 18.8028 32.0756 18.4993 31.8501 18.3114C31.6246 18.1234 31.3554 18.0294 31.0424 18.0294C30.6551 18.0294 30.354 18.1502 30.1391 18.3919C29.9242 18.6309 29.8168 18.9384 29.8168 19.3143V23.2575H28.631V19.1451C28.631 18.8095 28.5276 18.5396 28.3207 18.3355C28.1138 18.1314 27.8445 18.0294 27.5129 18.0294C27.2874 18.0294 27.0792 18.0898 26.8882 18.2107C26.6999 18.3288 26.5473 18.494 26.4306 18.7061C26.3165 18.9182 26.2595 19.1639 26.2595 19.4432V23.2575H25.0698Z" fill="#FFA300"/>
</g>
</g>
</svg>
