<svg width="38" height="32" viewBox="0 0 38 32" fill="none" xmlns="http://www.w3.org/2000/svg">
<g id="Domains">
<path id="Vector" d="M20.432 18.1779L17.9326 20.6895L17.0685 19.8182C16.9754 19.7243 16.8649 19.6497 16.7431 19.5989C16.6214 19.548 16.4909 19.5217 16.359 19.5216C16.2272 19.5215 16.0967 19.5475 15.9748 19.5982C15.853 19.6489 15.7423 19.7233 15.6491 19.817C15.5559 19.9108 15.482 20.0221 15.4316 20.1446C15.3812 20.2672 15.3553 20.3985 15.3554 20.5311C15.3555 20.6637 15.3816 20.7949 15.4322 20.9174C15.4828 21.0398 15.5569 21.151 15.6503 21.2446L17.2246 22.8281C17.4128 23.016 17.6673 23.1215 17.9325 23.1215C18.1978 23.1215 18.4523 23.016 18.6405 22.8281L21.8479 19.6021C22.0357 19.4132 22.1412 19.1571 22.1412 18.89C22.1412 18.6229 22.0357 18.3667 21.8479 18.1779C21.6601 17.989 21.4055 17.8829 21.1399 17.8829C20.8744 17.8829 20.6197 17.989 20.432 18.1779Z" fill="#333333"/>
<path id="Vector_2" d="M28.1609 12.8242H9.83912C9.71914 12.8242 9.60407 12.8722 9.51923 12.9575C9.43439 13.0428 9.38672 13.1585 9.38672 13.2792V16.9305L10.857 18.4092V24.224C10.2825 24.8018 9.96125 25.1249 9.38672 25.7027V29.2038C9.38672 29.2636 9.39842 29.3228 9.42116 29.378C9.44389 29.4332 9.47722 29.4833 9.51923 29.5256C9.56124 29.5678 9.61111 29.6013 9.666 29.6242C9.72088 29.6471 9.77971 29.6588 9.83912 29.6588H13.3949L14.8652 28.1801H23.1349L24.6051 29.6588H28.1609C28.2809 29.6588 28.3959 29.6109 28.4808 29.5256C28.5656 29.4402 28.6133 29.3245 28.6133 29.2038V25.7027L27.143 24.224V18.4092L28.6133 16.9305V13.2792C28.6133 13.2195 28.6016 13.1603 28.5788 13.1051C28.5561 13.0499 28.5228 12.9997 28.4808 12.9575C28.4388 12.9152 28.3889 12.8817 28.334 12.8589C28.2791 12.836 28.2203 12.8242 28.1609 12.8242ZM19 26.053C17.9082 26.0528 16.841 25.727 15.9333 25.1167C15.0256 24.5065 14.3182 23.6392 13.9006 22.6247C13.483 21.6101 13.3739 20.4937 13.5872 19.4168C13.8004 18.3399 14.3263 17.3507 15.0985 16.5744C15.8707 15.7981 16.8544 15.2695 17.9253 15.0555C18.9962 14.8415 20.1061 14.9517 21.1147 15.3721C22.1233 15.7925 22.9853 16.5043 23.5917 17.4175C24.1981 18.3306 24.5216 19.4041 24.5214 20.5022C24.5213 21.2313 24.3784 21.9532 24.1009 22.6268C23.8234 23.3004 23.4166 23.9124 22.9039 24.4278C22.3912 24.9433 21.7825 25.3521 21.1127 25.631C20.4428 25.9098 19.725 26.0533 19 26.053Z" fill="#FFA300"/>
<path id="Vector_3" d="M14.5887 6.93858C14.5887 5.76204 15.0534 4.6337 15.8806 3.80176C16.7078 2.96982 17.8297 2.50244 18.9995 2.50244C20.1693 2.50244 21.2912 2.96982 22.1184 3.80176C22.9456 4.6337 23.4103 5.76204 23.4103 6.93858V10.8787H25.8984V6.93858C25.8984 5.09835 25.1716 3.3335 23.8778 2.03226C22.584 0.731027 20.8292 0 18.9995 0C17.1698 0 15.415 0.731027 14.1212 2.03226C12.8274 3.3335 12.1006 5.09835 12.1006 6.93858V10.8787H14.5887V6.93858Z" fill="#FFA300"/>
<path id="Vector_4" d="M4.47804 26.2095L2.88564 27.8111C2.65175 27.7241 2.4044 27.6794 2.15503 27.6791C1.69762 27.6778 1.2517 27.8232 0.882184 28.0944C0.512667 28.3655 0.238835 28.7482 0.100545 29.1867C-0.0377453 29.6252 -0.0332764 30.0967 0.113301 30.5325C0.259879 30.9683 0.540915 31.3456 0.915504 31.6097C1.29009 31.8737 1.73869 32.0106 2.19599 32.0004C2.65329 31.9903 3.09544 31.8336 3.45808 31.5532C3.82071 31.2728 4.08491 30.8833 4.21221 30.4414C4.33952 29.9996 4.32329 29.5284 4.16588 29.0964L5.49139 27.7633H7.5769V25.9434H5.11816C4.99928 25.9431 4.88153 25.9665 4.77167 26.0122C4.66182 26.0578 4.56202 26.1249 4.47804 26.2095Z" fill="#333333"/>
<path id="Vector_5" d="M2.80869 19.0898C2.42506 19.0893 2.04834 19.1925 1.71799 19.3887C1.38763 19.5848 1.11578 19.8667 0.930895 20.2048C0.746013 20.5429 0.654901 20.9247 0.667098 21.3103C0.679294 21.696 0.79435 22.0712 1.00022 22.3968C1.20609 22.7224 1.4952 22.9863 1.83729 23.1609C2.17937 23.3356 2.56185 23.4145 2.94467 23.3894C3.3275 23.3644 3.69659 23.2363 4.01331 23.0186C4.33002 22.8009 4.58271 22.5015 4.74493 22.1519H9.04714V20.3319H4.74493C4.57363 19.9607 4.30032 19.6465 3.95724 19.4264C3.61415 19.2063 3.21563 19.0895 2.80869 19.0898Z" fill="#333333"/>
<path id="Vector_6" d="M2.15541 14.8057C2.40478 14.8054 2.65213 14.7608 2.88602 14.6738L4.4784 16.2754C4.56239 16.36 4.66219 16.427 4.77204 16.4727C4.8819 16.5184 4.99965 16.5418 5.11852 16.5415H7.57725V14.7216H5.49175L4.16625 13.3884C4.32157 12.9583 4.33652 12.4896 4.20894 12.0504C4.08136 11.6112 3.81789 11.2243 3.45678 10.9459C3.09568 10.6676 2.65575 10.5122 2.20089 10.5024C1.74602 10.4927 1.2999 10.629 0.927307 10.8916C0.554718 11.1542 0.275063 11.5294 0.128954 11.9628C-0.0171551 12.3961 -0.0221101 12.8651 0.114809 13.3014C0.251727 13.7378 0.52339 14.1189 0.890346 14.3894C1.2573 14.66 1.70044 14.8058 2.15541 14.8057V14.8057Z" fill="#333333"/>
<path id="Vector_7" d="M33.5217 16.2758L35.1141 14.6742C35.348 14.7612 35.5954 14.8059 35.8447 14.8062C36.3022 14.8076 36.7481 14.6621 37.1176 14.3909C37.4871 14.1198 37.7609 13.7371 37.8992 13.2986C38.0375 12.8601 38.033 12.3886 37.8865 11.9528C37.7399 11.517 37.4588 11.1397 37.0842 10.8757C36.7097 10.6116 36.2611 10.4747 35.8038 10.4849C35.3465 10.4951 34.9043 10.6517 34.5417 10.9321C34.179 11.2125 33.9148 11.602 33.7875 12.0439C33.6602 12.4857 33.6765 12.9569 33.8339 13.3889L32.5084 14.722H30.4229V16.542H32.8839C33.0024 16.542 33.1197 16.5185 33.2292 16.4728C33.3386 16.4271 33.438 16.3602 33.5217 16.2758Z" fill="#333333"/>
<path id="Vector_8" d="M35.1907 23.394C35.5743 23.3945 35.951 23.2913 36.2814 23.0951C36.6118 22.899 36.8836 22.6171 37.0685 22.2791C37.2534 21.941 37.3445 21.5591 37.3323 21.1735C37.3201 20.7879 37.2051 20.4126 36.9992 20.087C36.7933 19.7615 36.5042 19.4976 36.1621 19.3229C35.82 19.1483 35.4375 19.0693 35.0547 19.0944C34.6719 19.1194 34.3028 19.2475 33.9861 19.4652C33.6693 19.683 33.4166 19.9823 33.2544 20.332H28.9521V22.1519H33.2544C33.4261 22.5228 33.6995 22.8368 34.0425 23.0568C34.3855 23.2768 34.7838 23.3938 35.1907 23.394Z" fill="#333333"/>
<path id="Vector_9" d="M35.8447 27.6772C35.5953 27.6775 35.348 27.7221 35.1141 27.8091L33.5217 26.2076C33.438 26.1232 33.3386 26.0562 33.2291 26.0105C33.1197 25.9649 33.0023 25.9414 32.8838 25.9414H30.4229V27.7614H32.5083L33.8338 29.0945C33.6785 29.5246 33.6636 29.9933 33.7912 30.4325C33.9187 30.8717 34.1822 31.2586 34.5433 31.537C34.9044 31.8154 35.3443 31.9707 35.7992 31.9805C36.2541 31.9903 36.7002 31.8539 37.0728 31.5913C37.4454 31.3287 37.725 30.9535 37.8712 30.5201C38.0173 30.0868 38.0222 29.6179 37.8853 29.1815C37.7484 28.7451 37.4767 28.364 37.1098 28.0935C36.7428 27.823 36.2997 27.6771 35.8447 27.6772Z" fill="#333333"/>
</g>
</svg>
