<svg width="80" height="81" viewBox="0 0 80 81" fill="none" xmlns="http://www.w3.org/2000/svg">
<g id="Enforcement &#38; Investigations">
<ellipse id="Ellipse 18" cx="40" cy="40.955" rx="40" ry="39.9823" fill="#FFA300" fill-opacity="0.1"/>
<g id="Enforcement &#38; Investigations-icon">
<path id="Layer-1" fill-rule="evenodd" clip-rule="evenodd" d="M53.6308 35.324C53.2347 34.5045 52.1266 32.262 51.3378 31.1549C50.5409 30.0365 48.7826 28.2551 48.1359 27.6114L48.8725 27.1045C49.1809 26.8923 49.2378 26.4489 48.9994 26.1143L47.704 24.2961C47.4639 23.9591 47.0214 23.8629 46.7118 24.0759C46.7118 24.0759 43.4869 25.8958 42.0364 26.8939C40.4972 27.9531 37.7427 30.2478 37.7427 30.2478C37.4317 30.4618 37.3755 30.9047 37.6139 31.2393L38.9094 33.0575C39.1495 33.3945 39.5918 33.4908 39.9011 33.2779L40.5922 32.8024C40.8614 33.3349 41.4471 34.4754 42.0355 35.5037L23.7304 48.0999C22.9546 48.6338 22.768 49.6811 23.3099 50.4417C23.8508 51.2008 24.9188 51.3871 25.6929 50.8544L43.9943 38.2606C44.7835 39.1671 45.6697 40.0887 46.0861 40.5156L45.3962 40.9904C45.0869 41.2032 45.0277 41.6447 45.2678 41.9816L46.5633 43.7998C46.8017 44.1344 47.2444 44.234 47.5554 44.02C47.5554 44.02 50.7414 42.249 52.2414 41.2168C53.7311 40.1917 56.5245 37.8481 56.5245 37.8481C56.834 37.6351 56.8934 37.1935 56.6533 36.8566L55.3579 35.0384C55.1195 34.7038 54.676 34.6047 54.3676 34.817L53.6308 35.324Z" stroke="#FFA300" stroke-width="2.4" stroke-linecap="round" stroke-linejoin="round"/>
<path id="Layer-2" fill-rule="evenodd" clip-rule="evenodd" d="M54.4057 54.0123H55.8014C56.3924 54.0123 56.8716 54.4798 56.8716 55.0624V56.3247C56.8716 56.9046 56.3962 57.3748 55.8014 57.3748H40.8338C40.2428 57.3748 39.7637 56.9072 39.7637 56.3247V55.0624C39.7637 54.4824 40.2391 54.0123 40.8338 54.0123H42.2297C42.1839 53.8952 42.1588 53.768 42.1588 53.6347V52.3723C42.1588 51.7924 42.6341 51.3223 43.2303 51.3223H53.4049C53.9967 51.3223 54.4765 51.7898 54.4765 52.3723V53.6347C54.4765 53.7678 54.4514 53.8951 54.4057 54.0123Z" stroke="#FFA300" stroke-width="2.4" stroke-linecap="round" stroke-linejoin="round"/>
<path id="Layer-3" d="M49.2155 27.1035L47.2264 28.4722M42.2579 31.8912L40.2441 33.2769L42.2579 31.8912Z" stroke="#FFA300" stroke-width="2.4" stroke-linecap="round" stroke-linejoin="round"/>
<path id="Layer-4" d="M54.7096 34.8164L52.7205 36.1851M47.752 39.6041L45.7383 40.9898L47.752 39.6041Z" stroke="#FFA300" stroke-width="2.4" stroke-linecap="round" stroke-linejoin="round"/>
</g>
</g>
</svg>
