<svg width="80" height="80" viewBox="0 0 80 80" fill="none" xmlns="http://www.w3.org/2000/svg">
<g id="Market Intelligence">
<circle id="Ellipse 8165" opacity="0.1" cx="40" cy="40" r="40" fill="#FFA300"/>
<g id="Group 163623">
<g id="Group 163622">
<g id="Group 163621">
<path id="Union" fill-rule="evenodd" clip-rule="evenodd" d="M49.163 33.7522C48.3305 31.7536 46.9206 30.0453 45.1116 28.8434C43.3027 27.6415 41.176 27 39.0004 27C36.8248 27 34.698 27.6415 32.8891 28.8434C31.0802 30.0453 29.6703 31.7536 28.8377 33.7522C28.0051 35.7509 27.7873 37.9502 28.2117 40.0719C28.6272 42.149 29.5837 44.1809 31.1495 45.7392L31.1522 45.7419L31.2377 45.8279C32.8069 47.4071 33.6869 49.5377 33.6869 51.7577C33.6869 52.4438 34.2463 53 34.9362 53H43.4315C44.1214 53 44.6808 52.4438 44.6808 51.7577C44.6808 49.5419 45.566 47.4168 47.1417 45.85L47.3132 45.6795C48.9784 44.0236 49.4191 41.921 49.789 40.0719C50.2134 37.9502 49.9956 35.7509 49.163 33.7522ZM42.254 50.5155C42.5344 48.098 43.6273 45.831 45.3749 44.0932L45.5464 43.9227C46.6085 42.8666 46.9558 41.4998 47.3384 39.5872C47.6664 37.9474 47.4981 36.2477 46.8546 34.703C46.2112 33.1583 45.1215 31.8381 43.7235 30.9092C42.3254 29.9803 40.6818 29.4845 39.0004 29.4845C37.3189 29.4845 35.6753 29.9803 34.2772 30.9092C32.8792 31.8381 31.7895 33.1583 31.1461 34.703C30.5026 36.2477 30.3343 37.9474 30.6623 39.5872C30.9991 41.2705 31.7591 42.8317 32.919 43.985L32.9243 43.9903L33.015 44.0817C34.7515 45.8292 35.836 48.0983 36.1143 50.5155H42.254Z" fill="#FFA300"/>
<path id="Rectangle 9829" d="M34.0004 54H44.3004V56H34.0004V54Z" fill="#FFA300"/>
<path id="Rectangle 9830" d="M34.2442 57H44.0003V59.0004H34.2442V57Z" fill="#FFA300"/>
</g>
<g id="Ellipse 8163">
<circle cx="44.7704" cy="30.7074" r="10.2074" stroke="#FEFEFE" stroke-width="3"/>
<circle cx="44.7704" cy="30.7074" r="10.2074" stroke="#FFA300" stroke-opacity="0.1" stroke-width="3"/>
</g>
<g id="Ellipse 8164">
<path d="M54.5265 30.7073C54.5265 36.0955 50.1585 40.4635 44.7704 40.4635C39.3822 40.4635 35.0142 36.0955 35.0142 30.7073C35.0142 25.3192 39.3822 20.9512 44.7704 20.9512C50.1585 20.9512 54.5265 25.3192 54.5265 30.7073Z" fill="#FEFEFE"/>
<path d="M54.5265 30.7073C54.5265 36.0955 50.1585 40.4635 44.7704 40.4635C39.3822 40.4635 35.0142 36.0955 35.0142 30.7073C35.0142 25.3192 39.3822 20.9512 44.7704 20.9512C50.1585 20.9512 54.5265 25.3192 54.5265 30.7073Z" fill="#FFA300" fill-opacity="0.1"/>
<path d="M54.5265 30.7073C54.5265 36.0955 50.1585 40.4635 44.7704 40.4635C39.3822 40.4635 35.0142 36.0955 35.0142 30.7073C35.0142 25.3192 39.3822 20.9512 44.7704 20.9512C50.1585 20.9512 54.5265 25.3192 54.5265 30.7073Z" stroke="#FFA300" stroke-width="3"/>
</g>
<path id="Vector" d="M44.771 21.9258C38.2354 28.8834 38.2963 32.7585 44.771 39.4869M44.7693 21.9258V39.4869C50.6527 33.4346 51.8681 28.6329 44.7693 21.9258Z" stroke="#FFA300" stroke-width="1.5" stroke-linecap="round"/>
<path id="Vector 8" d="M36.1431 30.4297L52.8679 30.4297" stroke="#FFA300" stroke-width="1.5" stroke-linecap="round"/>
</g>
</g>
</g>
</svg>
