<svg width="21" height="32" viewBox="0 0 21 32" fill="none" xmlns="http://www.w3.org/2000/svg">
<g id="Mobile-Apps">
<path id="Vector" d="M4.06835 32H16.2734C18.5212 32 20.3417 30.21 20.3417 28V4C20.3417 1.79 18.5212 0 16.2734 0H4.06835C1.82059 0 0 1.79 0 4V28C0 30.21 1.82059 32 4.06835 32ZM2.03417 4H18.3076V28H2.03417V4Z" fill="#333333"/>
<g id="Group 96">
<rect id="Rectangle 120" x="4.06836" y="8.54102" width="3.32869" height="3.32869" rx="1" fill="#FFA300"/>
<rect id="Rectangle 121" x="8.50668" y="8.54102" width="3.32869" height="3.32869" rx="1" fill="#FFA300"/>
<rect id="Rectangle 122" x="12.9453" y="8.54089" width="3.32869" height="3.32869" rx="1" fill="#FFA300"/>
</g>
<g id="Group 97">
<rect id="Rectangle 120_2" x="4.06836" y="13.627" width="3.32869" height="3.32869" rx="1" fill="#FFA300"/>
<rect id="Rectangle 121_2" x="8.50668" y="13.627" width="3.32869" height="3.32869" rx="1" fill="#FFA300"/>
<rect id="Rectangle 122_2" x="12.9453" y="13.627" width="3.32869" height="3.32869" rx="1" fill="#FFA300"/>
</g>
<g id="Group 98">
<rect id="Rectangle 120_3" x="4.06836" y="18.7128" width="3.32869" height="3.32869" rx="1" fill="#FFA300"/>
<rect id="Rectangle 121_3" x="8.50668" y="18.7128" width="3.32869" height="3.32869" rx="1" fill="#FFA300"/>
</g>
</g>
</svg>
