<svg width="80" height="80" viewBox="0 0 80 80" fill="none" xmlns="http://www.w3.org/2000/svg">
<g id="Profitability">
<circle id="Ellipse 7" opacity="0.1" cx="40" cy="40" r="40" fill="#FFA300"/>
<g id="profit">
<path id="Vector" d="M54.6726 26.7242H48.0359V23.7355C48.0359 21.6665 46.7268 20.0001 45.1015 20.0001H35.6207C33.9954 20.0001 32.6863 21.6665 32.6863 23.7355V26.7242H25.3272C22.3928 26.7242 20 29.7702 20 33.5057V53.2186C20 56.954 22.3928 60.0001 25.3272 60.0001H54.6728C57.6072 60.0001 60 56.954 60 53.2186V33.5057C60 29.7702 57.6072 26.7242 54.6728 26.7242H54.6726ZM34.9433 23.7355C34.9433 23.2757 35.2595 22.8736 35.6204 22.8736H45.1012C45.4625 22.8736 45.7783 23.2761 45.7783 23.7355V26.7242H34.943L34.9433 23.7355ZM57.2911 53.2187C57.2911 55.058 56.1174 56.552 54.6726 56.552H25.327C23.8821 56.552 22.7084 55.0579 22.7084 53.2187V33.5058C22.7084 31.6665 23.8822 30.1724 25.327 30.1724H54.6726C56.1174 30.1724 57.2911 31.6666 57.2911 33.5058V53.2187Z" fill="#FFA300"/>
<path id="Vector_2" d="M49.5628 41.5L49.2661 41.3888C47.7326 40.7777 47.1884 40.4998 47.1884 39.4442C47.1884 38.8331 47.3861 38.0553 48.9693 38.0553C49.7112 38.0553 50.5525 38.3332 51.3934 38.9443C51.6408 39.2221 51.9869 39.2775 52.2837 39.0555C52.4814 38.9443 52.6795 38.7776 52.8278 38.4444L53.273 37.3887C53.5204 36.8888 53.273 36.2219 52.9265 35.9444C52.1846 35.3887 51.294 35 50.2553 34.7775V32.9999H47.4851V34.8333C45.2591 35.2778 43.9726 36.9999 43.9726 39.4998C43.9726 42.5555 45.8525 43.611 48.326 44.6663L48.4744 44.7775C50.206 45.4998 50.7502 45.7773 50.7502 46.5555C50.7502 47.9998 49.3157 48.1664 48.7218 48.1664C47.7818 48.1664 46.8915 47.8331 46.0009 47.2774C45.8525 47.0553 45.6545 47.0553 45.5061 47.0553C45.2093 47.0553 44.8135 47.3332 44.6158 47.6665L44.1209 48.7221L44.0716 48.7775L44.0223 48.8887C43.8739 49.3332 44.0223 49.8331 44.4181 50.111C45.259 50.7221 46.4464 51.1666 47.5347 51.3332V52.9999H50.305V51.1112C52.4817 50.5 53.8668 48.7225 53.9658 46.3334C53.9161 43.2774 51.69 42.3888 49.5627 41.4998L49.5628 41.5Z" fill="#FFA300"/>
<path id="Vector_3" d="M35 39H39V53H35V39Z" fill="#FFA300"/>
<path id="Vector_4" d="M27 43.0002H31V53.0002H27V43.0002Z" fill="#FFA300"/>
</g>
</g>
</svg>
