<svg width="80" height="80" viewBox="0 0 80 80" fill="none" xmlns="http://www.w3.org/2000/svg">
<g id="Reach out to Potential customers">
<circle id="Ellipse 6" opacity="0.1" cx="40" cy="40" r="40" fill="#FFA300"/>
<g id="Group 163619">
<path id="Vector 3" d="M55 58H25L26.3116 49.5837C26.5639 47.9652 27.5929 46.5729 29.066 45.8568L35.9649 42.5032C36.6461 42.172 37.3935 42 38.1509 42H41.8491C42.6065 42 43.3539 42.172 44.0351 42.5032L50.934 45.8568C52.4072 46.5729 53.4361 47.9652 53.6884 49.5837L55 58Z" stroke="#FFA300" stroke-width="3"/>
<path id="Vector" d="M34.6102 31.9232L33.1407 32.202L34.6102 31.9232L33.549 26.3278C33.442 25.4801 33.5107 24.6189 33.7502 23.8008C33.9934 22.9702 34.4065 22.2051 34.9597 21.556C35.5128 20.9071 36.1928 20.3896 36.9526 20.0359C37.7123 19.6823 38.5353 19.5 39.3668 19.5H40.6332C41.4647 19.5 42.2877 19.6823 43.0474 20.0359C43.8072 20.3896 44.4872 20.9071 45.0403 21.556C45.5935 22.2051 46.0066 22.9702 46.2498 23.8008C46.4893 24.6189 46.558 25.4801 46.451 26.3278L45.3898 31.9232L46.8635 32.2027L45.3898 31.9232C45.1434 33.2222 44.465 34.3857 43.4796 35.2179C42.4951 36.0495 41.2647 36.5 40 36.5C38.7353 36.5 37.5049 36.0495 36.5204 35.2179L35.5525 36.3639L36.5204 35.2179C35.5351 34.3857 34.8566 33.2222 34.6102 31.9232Z" stroke="#FFA300" stroke-width="3"/>
</g>
</g>
</svg>
