<svg width="80" height="81" viewBox="0 0 80 81" fill="none" xmlns="http://www.w3.org/2000/svg">
<g id="Robust &#38; Accurate">
<ellipse id="Ellipse 18" cx="40" cy="40.4706" rx="40" ry="39.9823" fill="#FFA300" fill-opacity="0.1"/>
<g id="Robust &#38; Accurate-icon">
<path id="Vector" d="M20 47.7489L32.3312 59.8674L59.0624 33.5973L46.7312 21.4788L20 47.7489ZM32.3312 57.6441L22.2624 47.7489L23.9312 46.1089L27.7656 49.8772L28.8968 48.7655L25.0624 44.9972L27.9312 42.1779L30.1656 44.3738L31.2968 43.2621L29.0624 41.0662L31.9312 38.2469L35.7656 42.0151L36.8968 40.9035L33.0624 37.1352L35.9312 34.3159L38.1656 36.5117L39.2968 35.4L37.0624 33.2042L39.9312 30.3849L43.7656 34.1531L44.8968 33.0414L41.0624 29.2732L43.9312 26.4538L46.1656 28.6497L47.2968 27.538L45.0624 25.3422L46.7312 23.7021L56.8 33.5973L32.3312 57.6441Z" fill="#FFA300" stroke="#FFA300" stroke-width="1.3" stroke-linejoin="round"/>
</g>
</g>
</svg>
