<svg width="80" height="81" viewBox="0 0 80 81" fill="none" xmlns="http://www.w3.org/2000/svg">
<g id="Scalable">
<ellipse id="Ellipse 18" cx="40" cy="40.955" rx="40" ry="39.9823" fill="#FFA300" fill-opacity="0.1"/>
<g id="Scalable-icon">
<path id="Vector" d="M53.9534 25.9609H46.3627C46.0851 25.9609 45.8189 26.0693 45.6227 26.2622C45.4264 26.455 45.3161 26.7166 45.3161 26.9894C45.3161 27.2622 45.4264 27.5238 45.6227 27.7166C45.8189 27.9095 46.0851 28.0179 46.3627 28.0179H51.4278L43.3487 35.9576C43.2459 36.0517 43.1634 36.1653 43.1062 36.2914C43.049 36.4176 43.0183 36.5538 43.0158 36.6918C43.0133 36.8299 43.0392 36.9671 43.0918 37.0952C43.1444 37.2232 43.2228 37.3396 43.3221 37.4372C43.4215 37.5349 43.5399 37.6119 43.6702 37.6636C43.8005 37.7153 43.9401 37.7407 44.0806 37.7383C44.2211 37.7359 44.3597 37.7056 44.4881 37.6494C44.6164 37.5932 44.732 37.5122 44.8278 37.4111L52.9069 29.4714V34.4492C52.9069 34.7219 53.0171 34.9835 53.2134 35.1764C53.4096 35.3693 53.6758 35.4776 53.9534 35.4776C54.2309 35.4776 54.4971 35.3693 54.6934 35.1764C54.8896 34.9835 54.9999 34.7219 54.9999 34.4492V26.9894C54.9999 26.7166 54.8896 26.455 54.6934 26.2622C54.4971 26.0693 54.2309 25.9609 53.9534 25.9609Z" fill="#FFA300" stroke="#FFA300" stroke-width="1.4"/>
<path id="Vector_2" d="M28.5721 28.0179H33.6372C33.9148 28.0179 34.181 27.9095 34.3772 27.7166C34.5735 27.5238 34.6837 27.2622 34.6837 26.9894C34.6837 26.7166 34.5735 26.455 34.3772 26.2622C34.181 26.0693 33.9148 25.9609 33.6372 25.9609H26.0465C25.769 25.9609 25.5028 26.0693 25.3065 26.2622C25.1103 26.455 25 26.7166 25 26.9894V34.4492C25 34.7219 25.1103 34.9835 25.3065 35.1764C25.5028 35.3693 25.769 35.4776 26.0465 35.4776C26.3241 35.4776 26.5902 35.3693 26.7865 35.1764C26.9828 34.9835 27.093 34.7219 27.093 34.4492V29.4714L35.1721 37.4111C35.2679 37.5122 35.3834 37.5932 35.5118 37.6494C35.6402 37.7056 35.7788 37.7359 35.9193 37.7383C36.0598 37.7407 36.1994 37.7153 36.3297 37.6636C36.46 37.6119 36.5784 37.5349 36.6777 37.4372C36.7771 37.3396 36.8555 37.2232 36.9081 37.0952C36.9607 36.9671 36.9866 36.8299 36.9841 36.6918C36.9816 36.5538 36.9509 36.4176 36.8937 36.2914C36.8365 36.1653 36.754 36.0517 36.6512 35.9576L28.5721 28.0179Z" fill="#FFA300" stroke="#FFA300" stroke-width="1.4"/>
<path id="Vector_3" d="M35.1721 43.9928L27.093 51.9326V46.9548C27.093 46.682 26.9828 46.4204 26.7865 46.2276C26.5902 46.0347 26.3241 45.9263 26.0465 45.9263C25.769 45.9263 25.5028 46.0347 25.3065 46.2276C25.1103 46.4204 25 46.682 25 46.9548V54.4146C25 54.6874 25.1103 54.949 25.3065 55.1418C25.5028 55.3347 25.769 55.4431 26.0465 55.4431H33.6372C33.9148 55.4431 34.1809 55.3347 34.3772 55.1418C34.5735 54.949 34.6837 54.6874 34.6837 54.4146C34.6837 54.1418 34.5735 53.8802 34.3772 53.6874C34.1809 53.4945 33.9148 53.3861 33.6372 53.3861H28.5721L36.6512 45.4464C36.836 45.2514 36.9367 44.9936 36.9319 44.7271C36.9271 44.4607 36.8173 44.2065 36.6255 44.018C36.4338 43.8296 36.1751 43.7217 35.904 43.717C35.6329 43.7123 35.3705 43.8112 35.1721 43.9928Z" fill="#FFA300" stroke="#FFA300" stroke-width="1.4"/>
<path id="Vector_4" d="M53.9539 45.9263C53.6763 45.9263 53.4101 46.0347 53.2139 46.2276C53.0176 46.4204 52.9073 46.682 52.9073 46.9548V51.9326L44.8283 43.9928C44.6299 43.8112 44.3675 43.7123 44.0964 43.717C43.8253 43.7217 43.5666 43.8296 43.3749 44.018C43.1831 44.2065 43.0733 44.4607 43.0685 44.7271C43.0637 44.9936 43.1644 45.2514 43.3492 45.4464L51.4283 53.3861H46.3632C46.0856 53.3861 45.8194 53.4945 45.6232 53.6874C45.4269 53.8802 45.3167 54.1418 45.3167 54.4146C45.3167 54.6874 45.4269 54.949 45.6232 55.1418C45.8194 55.3347 46.0856 55.4431 46.3632 55.4431H53.9539C54.2314 55.4431 54.4976 55.3347 54.6939 55.1418C54.8901 54.949 55.0004 54.6874 55.0004 54.4146V46.9548C55.0004 46.682 54.8901 46.4204 54.6939 46.2276C54.4976 46.0347 54.2314 45.9263 53.9539 45.9263Z" fill="#FFA300" stroke="#FFA300" stroke-width="1.4"/>
</g>
</g>
</svg>
