<svg width="38" height="32" viewBox="0 0 38 32" fill="none" xmlns="http://www.w3.org/2000/svg">
<g id="Search Engines-icon">
<path id="Vector" fill-rule="evenodd" clip-rule="evenodd" d="M2.32823 0H35.6749C36.3087 0 36.89 0.229866 37.3105 0.597651L37.3136 0.600355L37.3167 0.603059L37.3198 0.605763C37.7403 0.976253 38 1.48196 38 2.03634V29.9664C38 30.5262 37.7372 31.0346 37.3167 31.4023C36.8962 31.7701 36.3149 32 35.6749 32H2.32823C1.69439 32 1.1131 31.7728 0.689504 31.4023L0.686412 31.3996L0.68332 31.3969L0.680228 31.3942C0.259723 31.0237 0 30.518 0 29.9637V2.03093C0 1.47114 0.259723 0.962731 0.680228 0.594946C0.704963 0.573312 0.729699 0.551678 0.757527 0.532747C1.17803 0.202823 1.7284 0 2.32823 0ZM20.3481 26.705C19.8596 26.705 19.4638 26.3291 19.4638 25.8639C19.4638 25.3988 19.8596 25.0229 20.3481 25.0229H23.7066C24.1951 25.0229 24.5909 25.3988 24.5909 25.8639C24.5909 26.3291 24.1951 26.705 23.7066 26.705H20.3481ZM6.44361 26.705C5.96127 26.705 5.56859 26.3291 5.56859 25.8639C5.56859 25.3988 5.96127 25.0229 6.44361 25.0229H16.5388C17.0212 25.0229 17.4138 25.3988 17.4138 25.8639C17.4138 26.3291 17.0212 26.705 16.5388 26.705H6.44361ZM6.09422 23.0298C5.61188 23.0298 5.2192 22.6539 5.2192 22.1888C5.2192 21.7237 5.61188 21.3478 6.09422 21.3478H26.9485C27.4308 21.3478 27.8235 21.7237 27.8235 22.1888C27.8235 22.6539 27.4308 23.0298 26.9485 23.0298H6.09422ZM35.9006 7.28268C35.8295 7.2935 35.7522 7.29891 35.678 7.29891H2.33133C2.25403 7.29891 2.17982 7.2935 2.10871 7.28268V29.961C2.10871 30.015 2.13344 30.0637 2.17055 30.0989L2.17364 30.1016C2.21383 30.1367 2.26949 30.1557 2.33133 30.1557H35.678C35.7367 30.1557 35.7924 30.134 35.8356 30.0962C35.8758 30.061 35.9037 30.0123 35.9037 29.9583L35.9006 7.28268ZM15.503 2.62317C16.3378 2.62317 17.0119 3.21541 17.0119 3.94287C17.0119 4.67303 16.3347 5.26257 15.503 5.26257C14.6682 5.26257 13.9941 4.67033 13.9941 3.94287C13.9941 3.21541 14.6713 2.62317 15.503 2.62317ZM10.2251 2.62317C11.0599 2.62317 11.7339 3.21541 11.7339 3.94287C11.7339 4.67303 11.0568 5.26257 10.2251 5.26257C9.39024 5.26257 8.71619 4.67033 8.71619 3.94287C8.71619 3.21541 9.39333 2.62317 10.2251 2.62317ZM4.9502 2.62317C5.78503 2.62317 6.45907 3.21541 6.45907 3.94287C6.45907 4.67303 5.78194 5.26257 4.9502 5.26257C4.11538 5.26257 3.44133 4.67033 3.44133 3.94287C3.44133 3.21541 4.11538 2.62317 4.9502 2.62317Z" fill="#333333"/>
<path id="Vector_2" d="M30.0165 9.40234H7.44434C6.33977 9.40234 5.44434 10.2978 5.44434 11.4023V16.5022C5.44434 17.6068 6.33977 18.5022 7.44434 18.5022H30.0165C31.1211 18.5022 32.0165 17.6068 32.0165 16.5022V11.4023C32.0165 10.2978 31.1211 9.40234 30.0165 9.40234Z" fill="#FFA300"/>
<g id="Group 95">
<g id="Vector_3">
<path d="M10.7463 14.7321L8.91406 14.8324C8.967 15.3829 9.19934 15.8356 9.60813 16.1905C10.0169 16.5481 10.7522 16.7281 11.8139 16.7281C12.4197 16.7281 12.9197 16.651 13.3167 16.4992C13.7167 16.3449 14.0225 16.1211 14.246 15.8253C14.4666 15.5295 14.5784 15.2054 14.5784 14.8556C14.5784 14.5572 14.4931 14.2871 14.3284 14.0479C14.1637 13.8061 13.8961 13.6055 13.5314 13.4434C13.1667 13.2814 12.5638 13.1193 11.7198 12.9599C11.3786 12.8981 11.1639 12.8312 11.0757 12.7592C10.9845 12.6898 10.9375 12.6126 10.9375 12.5252C10.9375 12.4068 10.9933 12.3039 11.108 12.2216C11.2227 12.1393 11.3933 12.0982 11.6168 12.0982C11.8874 12.0982 12.1021 12.1548 12.2579 12.2679C12.4109 12.3785 12.5138 12.5612 12.5609 12.8081L14.3755 12.7129C14.296 12.147 14.0461 11.7329 13.6284 11.4731C13.2108 11.2108 12.602 11.0822 11.805 11.0822C11.1551 11.0822 10.6434 11.1542 10.2699 11.2956C9.89635 11.4371 9.61696 11.6352 9.43167 11.8847C9.24639 12.1342 9.15228 12.3991 9.15228 12.6795C9.15228 13.1065 9.33168 13.4563 9.69636 13.7315C10.0581 14.0093 10.6581 14.2305 11.5051 14.3951C12.0197 14.4955 12.3491 14.5983 12.4903 14.7115C12.6315 14.8247 12.702 14.9507 12.702 15.0922C12.702 15.2414 12.6285 15.3726 12.4785 15.4858C12.3315 15.5989 12.1168 15.6555 11.8433 15.6555C11.4727 15.6555 11.1904 15.5449 10.9904 15.3237C10.8669 15.1899 10.7845 14.9919 10.7463 14.7321Z" fill="white"/>
<path d="M20.725 11.1748H15.5607V16.6381H20.8221V15.4009H17.4988V14.3257H20.4897V13.2119H17.4988V12.3425H20.725V11.1748Z" fill="white"/>
<path d="M22.4867 11.8307C21.9161 12.3245 21.6338 13.019 21.6338 13.9116C21.6338 14.5495 21.7779 15.0819 22.0631 15.5038C22.3514 15.9282 22.7249 16.2368 23.1866 16.4349C23.6483 16.6304 24.2336 16.7281 24.9365 16.7281C25.6306 16.7281 26.2099 16.6149 26.6746 16.3886C27.1363 16.1597 27.4922 15.8433 27.7392 15.4343C27.9833 15.0253 28.1069 14.5032 28.1069 13.8653C28.1069 12.9881 27.8245 12.3039 27.2628 11.8152C26.7011 11.3291 25.8982 11.0847 24.86 11.0847C23.8454 11.0847 23.0543 11.3342 22.4867 11.8307Z" fill="white"/>
</g>
<path id="Vector_4" d="M23.9164 15.1032C23.6811 14.8613 23.5635 14.465 23.5635 13.9143C23.5635 13.3585 23.6811 12.9597 23.9193 12.7178C24.1546 12.4785 24.4693 12.3575 24.8575 12.3575C25.2663 12.3575 25.5869 12.4759 25.8251 12.7126C26.0604 12.9494 26.1809 13.3251 26.1809 13.8397C26.1809 14.4521 26.0692 14.8741 25.8398 15.1109C25.6133 15.345 25.2898 15.4634 24.8752 15.4634C24.4722 15.4634 24.1517 15.3425 23.9164 15.1032Z" fill="#FFA300"/>
</g>
</g>
</svg>
