<svg width="38" height="32" viewBox="0 0 38 32" fill="none" xmlns="http://www.w3.org/2000/svg">
<g id="Search Engines">
<path id="Vector (Stroke)" fill-rule="evenodd" clip-rule="evenodd" d="M0 10.3169C0 9.63488 0.562217 9.08203 1.25575 9.08203H36.7443C37.4378 9.08203 38 9.63488 38 10.3169C38 10.9988 37.4378 11.5517 36.7443 11.5517H1.25575C0.562217 11.5517 0 10.9988 0 10.3169Z" fill="#333333"/>
<path id="Vector (Stroke)_2" fill-rule="evenodd" clip-rule="evenodd" d="M0 1.2349C0 0.552883 0.562217 0 1.25575 0H36.7443C37.4378 0 38 0.552883 38 1.2349V30.7651C38 31.4471 37.4378 32 36.7443 32H1.25575C0.562217 32 0 31.4471 0 30.7651V1.2349ZM35.4885 29.5302V2.4698H2.51149V29.5302H35.4885Z" fill="#333333"/>
<path id="Vector" d="M6.01142 7.58928C6.87852 7.58928 7.58144 6.89816 7.58144 6.04562C7.58144 5.19307 6.87852 4.50195 6.01142 4.50195C5.14433 4.50195 4.44141 5.19307 4.44141 6.04562C4.44141 6.89816 5.14433 7.58928 6.01142 7.58928Z" fill="#FFA300"/>
<path id="Vector_2" d="M10.197 7.58928C11.0641 7.58928 11.767 6.89816 11.767 6.04562C11.767 5.19307 11.0641 4.50195 10.197 4.50195C9.32987 4.50195 8.62695 5.19307 8.62695 6.04562C8.62695 6.89816 9.32987 7.58928 10.197 7.58928Z" fill="#FFA300"/>
<path id="Vector_3" d="M14.3825 7.58928C15.2496 7.58928 15.9525 6.89816 15.9525 6.04562C15.9525 5.19307 15.2496 4.50195 14.3825 4.50195C13.5154 4.50195 12.8125 5.19307 12.8125 6.04562C12.8125 6.89816 13.5154 7.58928 14.3825 7.58928Z" fill="#FFA300"/>
<path id="Vector_4" d="M27.6178 20.4403C27.6178 21.0589 27.1167 21.5603 26.4987 21.5603C25.8811 21.5603 25.3799 21.0589 25.3799 20.4403C25.3799 19.8217 25.881 19.3203 26.4987 19.3203C27.1166 19.3203 27.6178 19.8217 27.6178 20.4403Z" fill="#FFA300"/>
<path id="Vector_5" d="M30.2154 16H8.47837C7.63911 16 7 16.68 7 17.4799V24.12C7 24.9601 7.67925 25.5999 8.47837 25.5999H30.2154C31.0547 25.5999 31.6938 24.9199 31.6938 24.12V17.4802C31.7339 16.6401 31.0544 16 30.2154 16ZM22.064 23.44H9.15765V18.2001H22.064V23.44ZM29.2964 23.2402C29.1765 23.3602 29.0567 23.4001 28.8967 23.4001C28.737 23.4001 28.6168 23.3602 28.497 23.2402L27.578 22.3203C27.2583 22.5203 26.8988 22.6802 26.4592 22.6802C25.2206 22.6802 24.2217 21.6802 24.2217 20.4403C24.2217 19.2004 25.2206 18.2004 26.4592 18.2004C27.6978 18.2004 28.6968 19.2004 28.6968 20.4403C28.6968 20.8404 28.5371 21.2004 28.3372 21.5603L29.2562 22.4802C29.536 22.6803 29.536 23.0402 29.2963 23.2403L29.2964 23.2402Z" fill="#FFA300"/>
</g>
</svg>
