<svg width="80" height="81" viewBox="0 0 80 81" fill="none" xmlns="http://www.w3.org/2000/svg">
<g id="Transparent">
<ellipse id="Ellipse 18" cx="40" cy="40.955" rx="40" ry="39.9823" fill="#FFA300" fill-opacity="0.1"/>
<path id="Transparent-icon" d="M35.3793 47.9858C38.3099 47.9858 41.0823 47.0002 43.3042 45.1982L44.4486 46.3085L44.0682 46.6776C43.8684 46.8714 43.7568 47.1332 43.7568 47.4064C43.7568 47.6796 43.8684 47.9425 44.0682 48.1352L52.8421 56.6463C53.0493 56.8473 53.3213 56.9483 53.5933 56.9483C53.8653 56.9483 54.1374 56.8473 54.3446 56.6463L56.6908 54.3701C56.8906 54.1763 57.0021 53.9144 57.0021 53.6412C57.0021 53.368 56.8906 53.1052 56.6908 52.9124L47.9169 44.4013C47.5014 43.9983 46.8299 43.9983 46.4144 44.4013L45.9511 44.8508L44.8109 43.7447C46.7162 41.5757 47.7618 38.8551 47.7618 35.9748C47.7618 32.7667 46.4739 29.7503 44.1351 27.4813C41.7963 25.2123 38.6872 23.9629 35.3804 23.9629C32.0735 23.9629 28.9644 25.2123 26.6267 27.4813C24.2879 29.7503 23 32.7657 23 35.9748C23 39.183 24.2879 42.1994 26.6267 44.4673C28.9633 46.7373 32.0725 47.9858 35.3793 47.9858ZM54.436 53.6423L53.5923 54.4598L46.3209 47.4064L47.1646 46.5889L54.436 53.6423ZM28.1281 28.94C30.0652 27.0607 32.6399 26.0257 35.3793 26.0257C38.1187 26.0257 40.6944 27.0607 42.6315 28.94C44.5687 30.8193 45.6355 33.3182 45.6355 35.9759C45.6355 38.6335 44.5687 41.1314 42.6315 43.0107C40.6944 44.89 38.1187 45.925 35.3793 45.925C32.6399 45.925 30.0652 44.89 28.1281 43.0107C26.191 41.1314 25.1241 38.6325 25.1241 35.9759C25.1241 33.3172 26.1899 30.8193 28.1281 28.94Z" fill="#FFA300" stroke="#FFA300" stroke-width="1.4"/>
</g>
</svg>
