<svg width="38" height="32" viewBox="0 0 38 32" fill="none" xmlns="http://www.w3.org/2000/svg">
<g id="Video Platforms">
<path id="Vector (Stroke)" fill-rule="evenodd" clip-rule="evenodd" d="M0 10.3169C0 9.63488 0.562217 9.08203 1.25575 9.08203H36.7443C37.4378 9.08203 38 9.63488 38 10.3169C38 10.9988 37.4378 11.5517 36.7443 11.5517H1.25575C0.562217 11.5517 0 10.9988 0 10.3169Z" fill="#333333"/>
<path id="Rectangle 167" d="M13.6064 15.787C13.6064 14.992 14.443 14.475 15.154 14.8306L23.6255 19.0673C24.4135 19.4614 24.4135 20.5859 23.6255 20.98L15.154 25.2167C14.443 25.5722 13.6064 25.0552 13.6064 24.2603V15.787Z" fill="#FFA300"/>
<path id="Vector (Stroke)_2" fill-rule="evenodd" clip-rule="evenodd" d="M0 1.2349C0 0.552883 0.562217 0 1.25575 0H36.7443C37.4378 0 38 0.552883 38 1.2349V30.7651C38 31.4471 37.4378 32 36.7443 32H1.25575C0.562217 32 0 31.4471 0 30.7651V1.2349ZM35.4885 29.5302V2.4698H2.51149V29.5302H35.4885Z" fill="#333333"/>
<path id="Vector" d="M6.01142 7.58928C6.87852 7.58928 7.58144 6.89816 7.58144 6.04562C7.58144 5.19307 6.87852 4.50195 6.01142 4.50195C5.14433 4.50195 4.44141 5.19307 4.44141 6.04562C4.44141 6.89816 5.14433 7.58928 6.01142 7.58928Z" fill="#FFA300"/>
<path id="Vector_2" d="M10.197 7.58928C11.0641 7.58928 11.767 6.89816 11.767 6.04562C11.767 5.19307 11.0641 4.50195 10.197 4.50195C9.32987 4.50195 8.62695 5.19307 8.62695 6.04562C8.62695 6.89816 9.32987 7.58928 10.197 7.58928Z" fill="#FFA300"/>
<path id="Vector_3" d="M14.3825 7.58928C15.2496 7.58928 15.9525 6.89816 15.9525 6.04562C15.9525 5.19307 15.2496 4.50195 14.3825 4.50195C13.5154 4.50195 12.8125 5.19307 12.8125 6.04562C12.8125 6.89816 13.5154 7.58928 14.3825 7.58928Z" fill="#FFA300"/>
</g>
</svg>
